# xmcd
#
# Track frame offsets: 
#        150
#        19295
#        32335
#        45322
#        59675
#        77960
#        98957
#        119201
#        141848
#        164690
#        183094
#        200363
#        220485
#        234666
#
# Disc length: 3351 seconds
#
# Revision: 0
# Processed by: cddbd v1.5.2PL0 Copyright (c) Steve Scherf et al.
# Submitted via: ExactAudioCopyFreeDBPlugin 1.0
#
DISCID=cd0d150e
DTITLE=An De Bruijn - Thank You Nina
DYEAR=2014
DGENRE=Blues
TTITLE0=Here Comes The Sun
TTITLE1=Feeling Good
TTITLE2=I Hold No Grudge
TTITLE3=Everybody's Gone To The Moon
TTITLE4=Blues For Mama
TTITLE5=Don't Smoke In Bed
TTITLE6=Ne Me Quitte Pas
TTITLE7=Go To Hell
TTITLE8=Revolution
TTITLE9=I Think It's Gonna Rain Today
TTITLE10=Everybody Must Change
TTITLE11=I Got Life
TTITLE12=Do What You Gotta Do
TTITLE13=That's All I Want From You
EXTD=
EXTT0=
EXTT1=
EXTT2=
EXTT3=
EXTT4=
EXTT5=
EXTT6=
EXTT7=
EXTT8=
EXTT9=
EXTT10=
EXTT11=
EXTT12=
EXTT13=
PLAYORDER=
